<?xml version="1.0" encoding="UTF-8"?>
<svg xmlns="http://www.w3.org/2000/svg" xmlns:xlink="http://www.w3.org/1999/xlink" width="30px" height="42px" viewBox="0 0 30 42" version="1.1">
<g id="surface1">
<path style=" stroke:none;fill-rule:nonzero;fill:rgb(0%,0%,0%);fill-opacity:1;" d="M 14.371094 3.1875 C 14.015625 3.289062 13.574219 3.4375 13.386719 3.523438 C 13.167969 3.65625 13.066406 3.640625 13.066406 3.503906 C 13.066406 3.40625 12.742188 3.503906 12.351562 3.742188 C 11.945312 3.976562 11.351562 4.292969 11.03125 4.476562 C 10.707031 4.664062 10.214844 5.117188 9.925781 5.5 C 9.65625 5.871094 9.332031 6.1875 9.214844 6.1875 C 9.113281 6.207031 8.671875 6.640625 8.261719 7.164062 C 7.839844 7.699219 7.347656 8.269531 7.160156 8.4375 C 6.972656 8.605469 6.738281 9.074219 6.617188 9.492188 C 6.414062 10.179688 6.429688 10.265625 6.769531 10.632812 C 7.042969 10.917969 7.175781 11.371094 7.296875 12.429688 C 7.484375 13.871094 7.804688 15.027344 8.230469 15.765625 L 8.46875 16.1875 L 8.484375 15.699219 C 8.484375 14.945312 8.703125 15.332031 8.992188 16.570312 C 9.230469 17.578125 9.316406 17.730469 9.839844 17.980469 C 10.621094 18.382812 12.539062 18.382812 13.355469 18.015625 C 14.03125 17.679688 14.40625 17.191406 14.761719 16.117188 C 15.101562 15.078125 15.457031 15.113281 15.816406 16.253906 C 16.152344 17.308594 16.511719 17.746094 17.257812 18.046875 C 18.054688 18.382812 19.972656 18.351562 20.703125 17.980469 C 21.246094 17.730469 21.3125 17.59375 21.53125 16.554688 C 21.667969 15.933594 21.839844 15.429688 21.90625 15.429688 C 21.992188 15.429688 22.007812 15.546875 21.957031 15.683594 C 21.890625 15.816406 21.890625 15.933594 21.941406 15.933594 C 22.160156 15.933594 23.230469 13.335938 23.585938 11.941406 L 23.992188 10.398438 L 23.621094 9.140625 C 23.417969 8.453125 23.246094 7.765625 23.246094 7.632812 C 23.246094 7.480469 22.976562 7.210938 22.652344 7.027344 C 22.332031 6.828125 22.058594 6.609375 22.058594 6.523438 C 22.058594 6.457031 21.753906 6.308594 21.378906 6.207031 C 21.007812 6.105469 20.703125 5.972656 20.703125 5.902344 C 20.703125 5.820312 20.328125 5.351562 19.851562 4.832031 C 19.308594 4.226562 18.714844 3.773438 18.15625 3.539062 C 17.15625 3.121094 15.339844 2.953125 14.371094 3.1875 Z M 16.050781 5.046875 C 16.765625 5.382812 17.308594 6.039062 17.5625 6.859375 C 17.664062 7.179688 17.527344 7.09375 16.953125 6.492188 C 15.917969 5.433594 14.78125 5.167969 13.082031 5.550781 C 12.21875 5.738281 11.960938 5.636719 12.660156 5.351562 C 14.59375 4.578125 15.015625 4.546875 16.050781 5.046875 Z M 18.476562 5.855469 C 18.917969 6.457031 18.9375 7.0625 18.53125 7.546875 C 18.242188 7.898438 18.242188 7.898438 18.292969 7.179688 C 18.34375 6.625 18.257812 6.324219 17.917969 5.820312 C 17.679688 5.46875 17.476562 5.148438 17.476562 5.097656 C 17.476562 4.898438 18.171875 5.417969 18.476562 5.855469 Z M 20.023438 6.757812 C 20.023438 6.976562 19.003906 8.050781 18.800781 8.050781 C 18.734375 8.050781 18.800781 7.78125 18.953125 7.464844 C 19.105469 7.144531 19.292969 6.925781 19.359375 6.976562 C 19.429688 7.011719 19.53125 6.894531 19.597656 6.710938 C 19.71875 6.375 20.023438 6.390625 20.023438 6.757812 Z M 13.457031 6.757812 C 13.761719 6.894531 14.101562 7.113281 14.203125 7.246094 C 14.390625 7.464844 14.304688 7.480469 13.523438 7.429688 C 12.878906 7.378906 12.300781 7.480469 11.386719 7.78125 C 9.636719 8.386719 9.535156 8.320312 11.03125 7.546875 C 11.726562 7.195312 12.183594 6.878906 12.046875 6.859375 C 11.910156 6.859375 11.980469 6.777344 12.21875 6.710938 C 12.828125 6.523438 12.84375 6.523438 13.457031 6.757812 Z M 21.53125 7.230469 C 22.226562 7.464844 22.210938 7.734375 21.515625 7.53125 C 21.210938 7.449219 20.9375 7.378906 20.921875 7.378906 C 20.886719 7.378906 20.871094 7.296875 20.871094 7.210938 C 20.871094 7.011719 20.871094 7.011719 21.53125 7.230469 Z M 14.933594 8.941406 C 15.628906 9.277344 15.949219 9.308594 18.292969 9.308594 L 20.90625 9.308594 L 21.363281 9.828125 C 21.804688 10.316406 21.855469 10.5 21.957031 12.246094 C 22.023438 13.265625 22.042969 14.15625 21.992188 14.207031 C 21.941406 14.257812 21.667969 14.207031 21.363281 14.105469 C 20.496094 13.804688 18.394531 13.886719 16.765625 14.289062 L 15.289062 14.644531 L 13.695312 14.257812 C 12.082031 13.886719 9.890625 13.835938 8.839844 14.171875 C 8.484375 14.289062 8.449219 14.273438 8.550781 14.003906 C 8.601562 13.835938 8.753906 13.015625 8.859375 12.160156 L 9.0625 10.617188 L 9.875 10.332031 C 10.316406 10.179688 11.183594 9.679688 11.792969 9.226562 C 13.335938 8.066406 13.421875 8.035156 13.828125 8.320312 C 14.015625 8.453125 14.507812 8.738281 14.933594 8.941406 Z M 10.351562 8.65625 C 10.351562 8.707031 10.011719 8.890625 9.605469 9.074219 C 8.890625 9.375 8.316406 9.359375 8.316406 9.039062 C 8.316406 8.972656 8.433594 8.941406 8.570312 8.992188 C 8.703125 9.058594 8.925781 9.023438 9.042969 8.921875 C 9.144531 8.824219 9.433594 8.722656 9.671875 8.671875 C 9.910156 8.636719 10.148438 8.585938 10.230469 8.570312 C 10.300781 8.570312 10.351562 8.605469 10.351562 8.65625 Z M 10.859375 9.089844 C 10.621094 9.277344 10.027344 9.628906 9.535156 9.847656 C 8.753906 10.214844 8.570312 10.230469 8.128906 10.0625 C 7.433594 9.761719 7.515625 9.644531 8.449219 9.628906 C 8.941406 9.609375 9.570312 9.441406 10.097656 9.191406 C 11.148438 8.65625 11.402344 8.621094 10.859375 9.089844 Z M 13.539062 14.761719 C 14.847656 15.230469 14.152344 17.328125 12.539062 17.78125 C 11.691406 18.03125 10.554688 17.8125 10.011719 17.292969 C 9.144531 16.488281 9.246094 14.84375 10.179688 14.558594 C 10.742188 14.390625 12.84375 14.527344 13.539062 14.761719 Z M 20.53125 14.644531 C 21.414062 15.078125 21.296875 16.789062 20.3125 17.511719 C 19.566406 18.046875 18.054688 17.996094 17.257812 17.394531 C 16.59375 16.90625 16.203125 15.984375 16.359375 15.347656 C 16.441406 15.046875 16.664062 14.878906 17.273438 14.691406 C 18.273438 14.390625 19.972656 14.359375 20.53125 14.644531 Z M 9.164062 14.761719 C 9.164062 14.84375 9.042969 14.929688 8.890625 14.929688 C 8.753906 14.929688 8.6875 14.84375 8.738281 14.761719 C 8.789062 14.660156 8.910156 14.59375 9.011719 14.59375 C 9.09375 14.59375 9.164062 14.660156 9.164062 14.761719 Z M 21.804688 14.761719 C 21.855469 14.84375 21.753906 14.929688 21.550781 14.929688 C 21.347656 14.929688 21.246094 14.84375 21.296875 14.761719 C 21.347656 14.660156 21.464844 14.59375 21.550781 14.59375 C 21.632812 14.59375 21.753906 14.660156 21.804688 14.761719 Z M 21.804688 14.761719 "/>
<path style=" stroke:none;fill-rule:nonzero;fill:rgb(0%,0%,0%);fill-opacity:1;" d="M 4.75 17.949219 C 4.75 18.046875 5.464844 18.113281 6.53125 18.113281 C 7.601562 18.113281 8.316406 18.046875 8.316406 17.949219 C 8.316406 17.847656 7.601562 17.78125 6.53125 17.78125 C 5.464844 17.78125 4.75 17.847656 4.75 17.949219 Z M 4.75 17.949219 "/>
<path style=" stroke:none;fill-rule:nonzero;fill:rgb(0%,0%,0%);fill-opacity:1;" d="M 22.058594 17.949219 C 22.058594 18.046875 22.703125 18.113281 23.671875 18.113281 C 24.636719 18.113281 25.28125 18.046875 25.28125 17.949219 C 25.28125 17.847656 24.636719 17.78125 23.671875 17.78125 C 22.703125 17.78125 22.058594 17.847656 22.058594 17.949219 Z M 22.058594 17.949219 "/>
<path style=" stroke:none;fill-rule:nonzero;fill:rgb(0%,0%,0%);fill-opacity:1;" d="M 6.195312 18.785156 C 6.023438 19.070312 4.921875 22.34375 4.921875 22.59375 C 4.921875 22.914062 6.378906 22.894531 6.515625 22.558594 C 6.566406 22.425781 6.789062 22.308594 7.023438 22.308594 C 7.246094 22.308594 7.464844 22.425781 7.535156 22.558594 C 7.601562 22.726562 7.875 22.8125 8.398438 22.8125 C 8.824219 22.8125 9.164062 22.761719 9.164062 22.675781 C 9.164062 22.609375 8.824219 21.6875 8.417969 20.632812 L 7.667969 18.703125 L 6.992188 18.652344 C 6.617188 18.617188 6.261719 18.683594 6.195312 18.785156 Z M 7.175781 21.46875 C 7.246094 21.703125 7.175781 21.804688 6.957031 21.804688 C 6.738281 21.804688 6.683594 21.703125 6.753906 21.386719 C 6.839844 20.917969 7.042969 20.949219 7.175781 21.46875 Z M 7.175781 21.46875 "/>
<path style=" stroke:none;fill-rule:nonzero;fill:rgb(0%,0%,0%);fill-opacity:1;" d="M 9.535156 20.664062 L 9.585938 22.726562 L 10.910156 22.777344 L 12.21875 22.828125 L 12.21875 21.972656 C 12.21875 21.152344 12.199219 21.132812 11.707031 21.132812 L 11.199219 21.132812 L 11.199219 18.617188 L 9.484375 18.617188 Z M 9.535156 20.664062 "/>
<path style=" stroke:none;fill-rule:nonzero;fill:rgb(0%,0%,0%);fill-opacity:1;" d="M 12.554688 20.226562 C 12.554688 21.773438 12.574219 21.855469 13.046875 22.324219 C 13.457031 22.726562 13.695312 22.8125 14.339844 22.8125 C 14.984375 22.8125 15.21875 22.726562 15.628906 22.324219 C 16.101562 21.855469 16.121094 21.773438 16.121094 20.226562 L 16.121094 18.617188 L 14.609375 18.617188 L 14.558594 20.042969 C 14.492188 21.9375 14.183594 21.972656 14.117188 20.078125 L 14.066406 18.617188 L 12.554688 18.617188 Z M 12.554688 20.226562 "/>
<path style=" stroke:none;fill-rule:nonzero;fill:rgb(0%,0%,0%);fill-opacity:1;" d="M 16.628906 20.714844 L 16.628906 22.8125 L 17.390625 22.8125 C 18.121094 22.8125 18.15625 22.792969 18.15625 22.308594 C 18.15625 22.023438 18.222656 21.804688 18.308594 21.804688 C 18.394531 21.804688 18.632812 22.023438 18.835938 22.308594 C 19.140625 22.726562 19.308594 22.8125 19.871094 22.8125 C 20.226562 22.8125 20.53125 22.761719 20.53125 22.675781 C 20.53125 22.609375 20.292969 22.273438 20.023438 21.90625 C 19.546875 21.300781 19.546875 21.25 19.800781 20.847656 C 20.023438 20.511719 20.039062 20.347656 19.871094 19.792969 C 19.617188 18.9375 19.003906 18.617188 17.648438 18.617188 L 16.628906 18.617188 Z M 18.648438 20.027344 C 18.785156 20.195312 18.785156 20.296875 18.613281 20.445312 C 18.34375 20.664062 18.15625 20.53125 18.15625 20.09375 C 18.15625 19.742188 18.375 19.707031 18.648438 20.027344 Z M 18.648438 20.027344 "/>
<path style=" stroke:none;fill-rule:nonzero;fill:rgb(0%,0%,0%);fill-opacity:1;" d="M 22.144531 18.820312 C 21.855469 19.589844 20.871094 22.558594 20.871094 22.675781 C 20.871094 22.929688 22.363281 22.828125 22.464844 22.558594 C 22.515625 22.425781 22.753906 22.308594 22.992188 22.308594 C 23.230469 22.308594 23.46875 22.425781 23.519531 22.558594 C 23.652344 22.878906 25.113281 22.914062 25.097656 22.59375 C 25.097656 22.492188 24.773438 21.554688 24.367188 20.546875 L 23.652344 18.703125 L 22.941406 18.652344 C 22.464844 18.617188 22.195312 18.667969 22.144531 18.820312 Z M 23.109375 21.386719 C 23.179688 21.671875 23.128906 21.804688 22.976562 21.804688 C 22.738281 21.804688 22.652344 21.285156 22.855469 21.082031 C 23.007812 20.917969 23.027344 20.933594 23.109375 21.386719 Z M 23.109375 21.386719 "/>
<path style=" stroke:none;fill-rule:nonzero;fill:rgb(0%,0%,0%);fill-opacity:1;" d="M 12.625 24.335938 C 11.46875 25.410156 11.316406 25.511719 10.742188 25.460938 C 10.25 25.429688 10.046875 25.3125 9.839844 24.941406 C 9.605469 24.523438 9.621094 24.4375 9.875 23.984375 C 10.164062 23.5 10.148438 23.484375 9.824219 23.484375 C 9.011719 23.484375 8.722656 25.730469 9.382812 27.003906 C 9.910156 28.027344 10.519531 28.429688 11.503906 28.414062 C 12.574219 28.398438 13.539062 27.878906 14.472656 26.835938 L 15.21875 25.980469 L 15.761719 26.636719 C 16.460938 27.523438 17.75 28.328125 18.683594 28.449219 C 19.292969 28.53125 19.53125 28.464844 20.023438 28.144531 C 20.804688 27.625 21.3125 26.835938 21.449219 25.964844 C 21.617188 24.773438 21.175781 23.484375 20.597656 23.484375 C 20.328125 23.484375 20.277344 23.75 20.53125 23.902344 C 20.820312 24.070312 20.71875 24.925781 20.394531 25.210938 C 19.71875 25.8125 18.765625 25.445312 17.679688 24.1875 C 16.832031 23.179688 16.492188 23.046875 15.796875 23.382812 C 15.355469 23.617188 15.238281 23.617188 14.695312 23.398438 C 14.371094 23.265625 14.050781 23.148438 14 23.148438 C 13.949219 23.148438 13.320312 23.683594 12.625 24.335938 Z M 12.625 24.335938 "/>
<path style=" stroke:none;fill-rule:nonzero;fill:rgb(0%,0%,0%);fill-opacity:1;" d="M 4.820312 23.464844 C 4.785156 23.5 4.800781 23.601562 4.851562 23.667969 C 4.972656 23.867188 8.316406 23.851562 8.316406 23.667969 C 8.316406 23.515625 4.972656 23.332031 4.820312 23.464844 Z M 4.820312 23.464844 "/>
<path style=" stroke:none;fill-rule:nonzero;fill:rgb(0%,0%,0%);fill-opacity:1;" d="M 22.175781 23.414062 C 21.855469 23.734375 22.195312 23.835938 23.636719 23.785156 C 24.570312 23.75 25.179688 23.667969 25.164062 23.566406 C 25.113281 23.382812 22.363281 23.246094 22.175781 23.414062 Z M 22.175781 23.414062 "/>
<path style=" stroke:none;fill-rule:nonzero;fill:rgb(0%,0%,0%);fill-opacity:1;" d="M 5.039062 24.4375 C 4.972656 24.488281 4.921875 24.839844 4.921875 25.191406 C 4.921875 25.695312 4.988281 25.832031 5.226562 25.832031 C 5.464844 25.832031 5.480469 25.796875 5.261719 25.664062 C 5.039062 25.511719 5.039062 25.476562 5.261719 25.328125 C 5.480469 25.175781 5.480469 25.144531 5.261719 24.976562 C 5.074219 24.839844 5.054688 24.773438 5.226562 24.707031 C 5.328125 24.671875 5.429688 24.554688 5.429688 24.472656 C 5.429688 24.289062 5.191406 24.269531 5.039062 24.4375 Z M 5.039062 24.4375 "/>
<path style=" stroke:none;fill-rule:nonzero;fill:rgb(0%,0%,0%);fill-opacity:1;" d="M 5.769531 24.574219 C 5.597656 24.789062 5.597656 24.890625 5.835938 25.125 C 6.195312 25.527344 6.175781 25.679688 5.820312 25.546875 C 5.632812 25.476562 5.582031 25.496094 5.667969 25.628906 C 5.734375 25.746094 5.90625 25.832031 6.039062 25.832031 C 6.3125 25.832031 6.363281 25.226562 6.109375 25.074219 C 6.023438 25.027344 5.9375 24.890625 5.9375 24.808594 C 5.9375 24.707031 6.023438 24.691406 6.109375 24.742188 C 6.210938 24.789062 6.277344 24.773438 6.277344 24.671875 C 6.277344 24.371094 5.988281 24.320312 5.769531 24.574219 Z M 5.769531 24.574219 "/>
<path style=" stroke:none;fill-rule:nonzero;fill:rgb(0%,0%,0%);fill-opacity:1;" d="M 6.582031 25.074219 C 6.683594 25.949219 6.789062 26.046875 6.789062 25.277344 C 6.789062 24.925781 6.871094 24.65625 6.957031 24.65625 C 7.058594 24.65625 7.125 24.925781 7.125 25.261719 C 7.125 25.730469 7.175781 25.847656 7.433594 25.796875 C 7.652344 25.761719 7.71875 25.578125 7.71875 25.074219 C 7.71875 24.421875 7.703125 24.40625 7.109375 24.40625 L 6.480469 24.386719 Z M 7.636719 25.160156 C 7.636719 25.429688 7.566406 25.664062 7.464844 25.664062 C 7.382812 25.664062 7.296875 25.429688 7.296875 25.160156 C 7.296875 24.875 7.382812 24.65625 7.464844 24.65625 C 7.566406 24.65625 7.636719 24.875 7.636719 25.160156 Z M 7.636719 25.160156 "/>
<path style=" stroke:none;fill-rule:nonzero;fill:rgb(0%,0%,0%);fill-opacity:1;" d="M 22.347656 24.4375 C 22.160156 24.605469 22.210938 24.859375 22.398438 24.742188 C 22.5 24.691406 22.566406 24.757812 22.566406 24.890625 C 22.566406 25.027344 22.5 25.191406 22.398438 25.242188 C 22.125 25.410156 22.195312 25.832031 22.484375 25.832031 C 22.636719 25.832031 22.738281 25.730469 22.71875 25.613281 C 22.703125 25.511719 22.71875 25.261719 22.738281 25.074219 C 22.753906 24.839844 22.824219 24.90625 22.925781 25.292969 C 23.128906 25.980469 23.484375 25.914062 23.550781 25.160156 C 23.621094 24.503906 23.332031 24.101562 23.058594 24.488281 C 22.925781 24.671875 22.855469 24.691406 22.789062 24.523438 C 22.703125 24.304688 22.515625 24.253906 22.347656 24.4375 Z M 23.367188 25.277344 C 23.316406 25.445312 23.28125 25.34375 23.28125 25.074219 C 23.28125 24.789062 23.316406 24.671875 23.367188 24.773438 C 23.398438 24.890625 23.398438 25.125 23.367188 25.277344 Z M 23.367188 25.277344 "/>
<path style=" stroke:none;fill-rule:nonzero;fill:rgb(0%,0%,0%);fill-opacity:1;" d="M 23.875 24.4375 C 23.6875 24.605469 23.738281 24.859375 23.925781 24.742188 C 24.027344 24.691406 24.09375 24.757812 24.09375 24.890625 C 24.09375 25.027344 24.027344 25.191406 23.925781 25.242188 C 23.652344 25.410156 23.722656 25.832031 24.011719 25.832031 C 24.164062 25.832031 24.265625 25.730469 24.246094 25.613281 C 24.230469 25.511719 24.246094 25.261719 24.265625 25.074219 C 24.28125 24.839844 24.347656 24.90625 24.453125 25.292969 C 24.65625 25.980469 25.011719 25.914062 25.078125 25.160156 C 25.148438 24.503906 24.859375 24.101562 24.585938 24.488281 C 24.453125 24.671875 24.382812 24.691406 24.316406 24.523438 C 24.230469 24.304688 24.042969 24.253906 23.875 24.4375 Z M 24.890625 25.277344 C 24.839844 25.445312 24.808594 25.34375 24.808594 25.074219 C 24.808594 24.789062 24.839844 24.671875 24.890625 24.773438 C 24.925781 24.890625 24.925781 25.125 24.890625 25.277344 Z M 24.890625 25.277344 "/>
<path style=" stroke:none;fill-rule:nonzero;fill:rgb(0%,0%,0%);fill-opacity:1;" d="M 14.441406 27.1875 C 13.472656 28.296875 12.640625 28.664062 11.164062 28.683594 L 10.027344 28.683594 L 9.859375 29.300781 C 9.46875 30.660156 9.738281 33.042969 10.265625 33.042969 C 10.382812 33.042969 10.519531 33.378906 10.570312 33.898438 C 10.691406 34.871094 11.148438 35.878906 11.589844 36.128906 C 11.757812 36.230469 12.300781 36.699219 12.792969 37.167969 C 13.660156 38.007812 14.78125 38.5625 16.050781 38.796875 C 16.542969 38.878906 16.59375 38.863281 16.59375 38.460938 C 16.59375 38.160156 16.832031 37.808594 17.375 37.320312 C 17.800781 36.917969 18.15625 36.515625 18.15625 36.398438 C 18.15625 36.28125 18.257812 36.230469 18.394531 36.28125 C 18.851562 36.464844 19.9375 34.835938 20.125 33.679688 C 20.191406 33.277344 20.3125 33.09375 20.445312 33.144531 C 20.855469 33.292969 21.109375 31.5 20.871094 30.292969 C 20.546875 28.714844 20.53125 28.683594 19.207031 28.683594 C 17.730469 28.664062 16.917969 28.296875 15.933594 27.207031 L 15.1875 26.351562 Z M 20.003906 32.152344 C 19.886719 32.371094 19.734375 32.539062 19.667969 32.539062 C 19.597656 32.539062 19.648438 32.339844 19.785156 32.070312 C 19.902344 31.820312 20.039062 31.347656 20.054688 31.03125 L 20.074219 30.441406 L 20.140625 31.097656 C 20.191406 31.464844 20.125 31.9375 20.003906 32.152344 Z M 12.945312 34.082031 C 13.152344 34.25 13.234375 34.386719 13.132812 34.386719 C 12.792969 34.386719 12.046875 33.445312 11.945312 32.875 C 11.859375 32.304688 11.859375 32.304688 12.21875 33.042969 C 12.402344 33.460938 12.742188 33.933594 12.945312 34.082031 Z M 12.84375 35.507812 C 13.625 36.464844 13.964844 36.714844 15.050781 37.167969 C 16.035156 37.554688 16.035156 37.570312 15.40625 37.570312 C 14.558594 37.570312 13.929688 37.320312 13.269531 36.683594 C 12.589844 36.046875 11.777344 34.535156 11.625 33.613281 C 11.523438 33.007812 11.539062 33.027344 11.929688 33.914062 C 12.148438 34.433594 12.574219 35.15625 12.84375 35.507812 Z M 12.84375 35.507812 "/>
</g>
</svg>
